<?xml version="1.0" encoding="UTF-8"?>
<svg xmlns="http://www.w3.org/2000/svg" xmlns:xlink="http://www.w3.org/1999/xlink" width="200px" height="221px" viewBox="0 0 200 220" version="1.1">
<g id="surface1">
<path style=" stroke:none;fill-rule:nonzero;fill:rgb(12.941177%,78.823531%,84.313726%);fill-opacity:1;" d="M 120.261719 3.988281 C 121.636719 4.40625 123.007812 4.824219 124.382812 5.242188 C 127.984375 6.339844 131.578125 7.457031 135.171875 8.578125 C 138.738281 9.6875 142.308594 10.78125 145.882812 11.871094 C 150.085938 13.160156 154.289062 14.449219 158.488281 15.753906 C 165.136719 17.820312 171.792969 19.855469 178.476562 21.800781 C 179.710938 22.164062 180.941406 22.523438 182.171875 22.886719 C 184.449219 23.554688 186.730469 24.210938 189.015625 24.859375 C 190.03125 25.15625 191.046875 25.457031 192.0625 25.753906 C 192.515625 25.878906 192.96875 26.003906 193.433594 26.132812 C 196.347656 27.003906 198.066406 28.136719 200 30.472656 C 200.375 31.832031 200.375 31.832031 200.363281 33.238281 C 200.363281 33.78125 200.363281 34.324219 200.363281 34.882812 C 200.34375 35.476562 200.324219 36.070312 200.304688 36.679688 C 200.292969 37.316406 200.285156 37.949219 200.273438 38.605469 C 198.949219 88.621094 187.882812 144.457031 143.609375 196.425781 C 137.863281 201.78125 131.394531 206.050781 124.769531 210.25 C 124.394531 210.488281 124.019531 210.726562 123.636719 210.972656 C 115.734375 215.929688 104.984375 222.136719 95.414062 220 C 83.9375 216.363281 72.914062 209.878906 63.609375 202.328125 C 62.992188 201.835938 62.375 201.34375 61.742188 200.839844 C 53.222656 193.941406 45.632812 186.15625 39.144531 177.339844 C 38.75 176.816406 38.75 176.816406 38.347656 176.28125 C 34.789062 171.539062 31.609375 166.671875 28.777344 161.457031 C 28.09375 160.199219 27.390625 158.949219 26.6875 157.703125 C 11.570312 130.40625 4.902344 98.921875 1.222656 68.253906 C 1.171875 67.839844 1.117188 67.421875 1.0625 66.992188 C 0.0976562 59.386719 -0.226562 51.851562 -0.226562 44.1875 C -0.230469 42.324219 -0.25 40.460938 -0.273438 38.59375 C -0.277344 37.40625 -0.28125 36.214844 -0.28125 35.023438 C -0.289062 34.46875 -0.300781 33.914062 -0.308594 33.34375 C -0.28125 29.605469 -0.28125 29.605469 0.9375 28.078125 C 3.019531 27.175781 5.132812 26.464844 7.304688 25.824219 C 8.074219 25.589844 8.074219 25.589844 8.859375 25.351562 C 10.617188 24.820312 12.382812 24.292969 14.144531 23.765625 C 15.414062 23.382812 16.6875 23 17.960938 22.617188 C 21.820312 21.449219 25.6875 20.292969 29.550781 19.140625 C 32.742188 18.183594 35.9375 17.226562 39.128906 16.273438 C 52.464844 12.277344 65.800781 8.289062 79.140625 4.308594 C 79.652344 4.15625 80.164062 4.003906 80.691406 3.847656 C 81.675781 3.554688 82.664062 3.261719 83.648438 2.972656 C 85.492188 2.433594 87.308594 1.886719 89.105469 1.207031 C 99.398438 -2.617188 110.320312 0.847656 120.261719 3.988281 Z M 120.261719 3.988281 "/>
<path style=" stroke:none;fill-rule:nonzero;fill:rgb(54.901963%,15.294118%,85.09804%);fill-opacity:1;" d="M 200 30.472656 C 201.410156 79.621094 190.265625 137.957031 151.09375 188.988281 C 143.109375 197.324219 134.515625 204.074219 124.769531 210.25 C 124.394531 210.488281 124.019531 210.726562 123.636719 210.972656 C 115.734375 215.929688 104.984375 222.136719 95.414062 220 C 83.9375 216.363281 72.914062 209.878906 63.609375 202.328125 C 62.992188 201.835938 62.375 201.34375 61.742188 200.839844 C 53.222656 193.941406 45.632812 186.15625 39.144531 177.339844 C 38.878906 176.992188 38.617188 176.640625 38.347656 176.28125 C 34.507812 171.167969 31.195312 165.882812 28.132812 160.277344 C 33.296875 156.140625 38.578125 152.15625 43.882812 148.203125 C 47.453125 145.542969 51.007812 142.863281 54.550781 140.167969 C 54.980469 139.835938 55.414062 139.507812 55.859375 139.167969 C 56.269531 138.855469 56.675781 138.546875 57.097656 138.222656 C 57.484375 137.929688 57.867188 137.640625 58.265625 137.339844 C 59.214844 136.597656 60.128906 135.8125 61.039062 135.023438 C 61.484375 134.710938 61.929688 134.394531 62.386719 134.070312 C 64.703125 134.839844 65.179688 135.792969 66.628906 137.730469 C 73.566406 146.355469 83.824219 151.707031 94.800781 152.964844 C 108.136719 153.6875 119.867188 151.386719 130.273438 142.605469 C 130.867188 142.175781 131.460938 141.75 132.070312 141.308594 C 137.339844 136.816406 140.539062 130.601562 143.121094 124.320312 C 143.339844 123.792969 143.558594 123.265625 143.785156 122.722656 C 146.714844 115.105469 146.707031 104.675781 144.34375 96.898438 C 144.171875 96.3125 144 95.730469 143.824219 95.125 C 142.292969 90.230469 140.539062 85.28125 137.078125 81.394531 C 136.652344 80.878906 136.222656 80.363281 135.78125 79.832031 C 136.570312 77.464844 137.621094 76.949219 139.640625 75.492188 C 140.316406 75 140.988281 74.507812 141.660156 74.019531 C 142.007812 73.769531 142.351562 73.519531 142.707031 73.261719 C 144.269531 72.128906 145.816406 70.972656 147.363281 69.816406 C 148.273438 69.136719 148.273438 69.136719 149.203125 68.441406 C 151.109375 67.007812 153.003906 65.558594 154.894531 64.101562 C 157.832031 61.84375 160.789062 59.613281 163.761719 57.398438 C 167.691406 54.472656 171.59375 51.511719 175.488281 48.539062 C 178.507812 46.230469 181.546875 43.953125 184.59375 41.683594 C 187.542969 39.472656 190.472656 37.234375 193.402344 34.996094 C 193.828125 34.675781 194.25 34.351562 194.6875 34.019531 C 195.25 33.585938 195.25 33.585938 195.824219 33.148438 C 196.378906 32.726562 196.378906 32.726562 196.941406 32.300781 C 197.378906 31.960938 197.816406 31.625 198.269531 31.277344 C 199.386719 30.472656 199.386719 30.472656 200 30.472656 Z M 200 30.472656 "/>
<path style=" stroke:none;fill-rule:nonzero;fill:rgb(87.058824%,89.019608%,89.019608%);fill-opacity:1;" d="M 128.246094 72.089844 C 130.484375 73.933594 132.527344 75.933594 134.554688 78.003906 C 135.023438 78.464844 135.488281 78.921875 135.96875 79.394531 C 144.527344 88.292969 146.460938 100.320312 146.308594 112.160156 C 146.199219 115.796875 145.574219 119.0625 144.34375 122.492188 C 144.128906 123.097656 143.910156 123.703125 143.691406 124.324219 C 139.480469 135.160156 131.960938 144.289062 121.253906 149.230469 C 120.1875 149.675781 119.117188 150.105469 118.042969 150.527344 C 117.390625 150.796875 117.390625 150.796875 116.730469 151.070312 C 111.636719 153.105469 106.726562 153.773438 101.261719 153.726562 C 100.457031 153.734375 100.457031 153.734375 99.636719 153.738281 C 87.753906 153.707031 77.261719 148.921875 68.597656 140.933594 C 58.984375 130.921875 55.304688 119.3125 55.484375 105.722656 C 55.730469 98.71875 57.8125 92.082031 61.160156 85.929688 C 61.402344 85.484375 61.644531 85.039062 61.894531 84.578125 C 66.550781 76.894531 74.179688 70.238281 82.570312 67.035156 C 83.03125 66.835938 83.492188 66.632812 83.96875 66.425781 C 98.246094 60.335938 115.898438 62.632812 128.246094 72.089844 Z M 128.246094 72.089844 "/>
<path style=" stroke:none;fill-rule:nonzero;fill:rgb(78.039217%,23.921569%,90.196079%);fill-opacity:1;" d="M 62.386719 134.070312 C 64.703125 134.839844 65.179688 135.792969 66.628906 137.730469 C 73.175781 145.867188 83.039062 151.449219 93.453125 152.851562 C 96.53125 153.109375 99.628906 153.023438 102.714844 153.003906 C 103.425781 153 104.132812 152.996094 104.867188 152.992188 C 106.609375 152.988281 108.351562 152.976562 110.089844 152.964844 C 108.257812 154.183594 108.257812 154.183594 99.695312 154.792969 C 99.894531 176.109375 100.097656 197.425781 100.304688 219.390625 C 94.796875 220.078125 94.796875 220.078125 92.535156 219.09375 C 92.03125 218.878906 91.527344 218.664062 91.007812 218.445312 C 90.480469 218.203125 89.953125 217.960938 89.410156 217.714844 C 88.855469 217.46875 88.296875 217.21875 87.726562 216.964844 C 79.09375 213.042969 70.96875 208.300781 63.609375 202.328125 C 62.992188 201.835938 62.375 201.34375 61.742188 200.839844 C 53.222656 193.941406 45.632812 186.15625 39.144531 177.339844 C 38.878906 176.992188 38.617188 176.640625 38.347656 176.28125 C 34.507812 171.167969 31.195312 165.882812 28.132812 160.277344 C 33.296875 156.140625 38.578125 152.15625 43.882812 148.203125 C 47.453125 145.542969 51.007812 142.863281 54.550781 140.167969 C 54.980469 139.835938 55.414062 139.507812 55.859375 139.167969 C 56.269531 138.855469 56.675781 138.546875 57.097656 138.222656 C 57.484375 137.929688 57.867188 137.640625 58.265625 137.339844 C 59.214844 136.597656 60.128906 135.8125 61.039062 135.023438 C 61.484375 134.710938 61.929688 134.394531 62.386719 134.070312 Z M 62.386719 134.070312 "/>
<path style=" stroke:none;fill-rule:nonzero;fill:rgb(99.607843%,50.196081%,0.784314%);fill-opacity:1;" d="M 102.753906 81.660156 C 106.398438 84.78125 108.585938 88.742188 110.089844 93.242188 C 110.164062 94.625 110.199219 96.007812 110.207031 97.394531 C 110.214844 98.125 110.222656 98.859375 110.234375 99.613281 C 110.089844 101.773438 110.089844 101.773438 109.433594 103.644531 C 108.730469 105.867188 108.804688 106.847656 109.480469 109.085938 C 110.683594 110.605469 112.105469 111.855469 113.554688 113.140625 C 114.386719 113.925781 115.222656 114.707031 116.054688 115.488281 C 117.371094 116.707031 118.6875 117.917969 120.023438 119.113281 C 127.875 126.191406 127.875 126.191406 128.398438 129.859375 C 128.398438 131.960938 128.257812 133.847656 127.828125 135.898438 C 125.40625 135.933594 122.988281 135.957031 120.566406 135.976562 C 119.875 135.988281 119.1875 135.996094 118.476562 136.007812 C 117.488281 136.011719 117.488281 136.011719 116.480469 136.019531 C 115.871094 136.027344 115.261719 136.03125 114.636719 136.039062 C 113.148438 135.898438 113.148438 135.898438 111.925781 134.679688 C 111.582031 133.0625 111.476562 131.457031 111.316406 129.804688 C 110.925781 129.726562 110.535156 129.644531 110.132812 129.5625 C 109.375 129.398438 109.375 129.398438 108.601562 129.234375 C 108.097656 129.128906 107.59375 129.023438 107.074219 128.914062 C 105.808594 128.585938 105.808594 128.585938 105.199219 127.976562 C 105.003906 126.722656 104.886719 125.46875 104.757812 124.207031 C 104.695312 123.09375 104.695312 123.09375 103.976562 122.492188 C 103.136719 122.429688 102.292969 122.378906 101.453125 122.339844 C 98.761719 122.089844 97.660156 121.226562 95.570312 119.519531 C 93.597656 118.542969 91.648438 118.609375 89.488281 118.570312 C 83.640625 118.425781 79.042969 116.546875 74.65625 112.589844 C 69.964844 107.472656 68.863281 101.707031 68.992188 95.035156 C 69.304688 88.773438 72.488281 85.261719 77.0625 81.050781 C 85.332031 75.230469 94.664062 76.203125 102.753906 81.660156 Z M 102.753906 81.660156 "/>
<path style=" stroke:none;fill-rule:nonzero;fill:rgb(25.882354%,90.196079%,72.156864%);fill-opacity:1;" d="M 10.398438 26.203125 C 8.5625 27.421875 8.5625 27.421875 6.5 27.996094 C 4.332031 28.628906 2.953125 29.039062 1.222656 30.472656 C 0.925781 32.171875 0.835938 33.496094 0.882812 35.195312 C 0.882812 35.667969 0.882812 36.140625 0.886719 36.625 C 0.890625 37.632812 0.90625 38.636719 0.925781 39.640625 C 0.953125 41.136719 0.964844 42.632812 0.964844 44.128906 C 1.023438 52.261719 1.882812 60.210938 3.058594 68.253906 C 3.15625 68.945312 3.257812 69.632812 3.359375 70.34375 C 5.640625 85.988281 8.46875 101.355469 12.457031 116.671875 C 12.816406 118.113281 13.117188 119.554688 13.410156 121.007812 C 13.964844 123.554688 14.871094 125.878906 15.878906 128.28125 C 16.484375 129.738281 17.042969 131.203125 17.585938 132.6875 C 19.828125 138.765625 22.253906 144.753906 24.886719 150.679688 C 25.160156 151.320312 25.4375 151.964844 25.722656 152.625 C 25.992188 153.21875 26.257812 153.808594 26.535156 154.421875 C 26.769531 154.949219 27.003906 155.476562 27.246094 156.019531 C 28.0625 157.386719 28.0625 157.386719 29.761719 157.710938 C 30.234375 157.753906 30.707031 157.796875 31.191406 157.839844 C 30.390625 158.753906 30.390625 158.753906 29.359375 159.667969 C 28.753906 159.667969 28.148438 159.667969 27.523438 159.667969 C 14.425781 134.015625 6.683594 107.011719 2.597656 78.539062 C 2.539062 78.109375 2.476562 77.675781 2.410156 77.234375 C 1.988281 74.242188 1.597656 71.25 1.222656 68.253906 C 1.164062 67.8125 1.109375 67.367188 1.050781 66.910156 C 0.0820312 59.332031 -0.226562 51.824219 -0.226562 44.1875 C -0.230469 42.324219 -0.25 40.460938 -0.273438 38.59375 C -0.277344 37.40625 -0.28125 36.214844 -0.28125 35.023438 C -0.289062 34.46875 -0.300781 33.914062 -0.308594 33.34375 C -0.28125 29.550781 -0.28125 29.550781 1.15625 28.015625 C 2.496094 27.402344 3.800781 26.824219 5.199219 26.355469 C 5.660156 26.195312 6.121094 26.035156 6.59375 25.871094 C 8.085938 25.566406 8.96875 25.726562 10.398438 26.203125 Z M 10.398438 26.203125 "/>
<path style=" stroke:none;fill-rule:nonzero;fill:rgb(30.19608%,87.058824%,74.509805%);fill-opacity:1;" d="M 10.398438 26.203125 C 8.5625 27.421875 8.5625 27.421875 6.5 27.996094 C 4.332031 28.628906 2.953125 29.039062 1.222656 30.472656 C 0.925781 32.171875 0.835938 33.496094 0.882812 35.195312 C 0.882812 35.667969 0.882812 36.140625 0.886719 36.625 C 0.890625 37.632812 0.90625 38.636719 0.925781 39.640625 C 0.953125 41.136719 0.964844 42.632812 0.964844 44.128906 C 1.03125 52.976562 2.035156 61.632812 3.386719 70.371094 C 4.160156 75.632812 4.429688 80.609375 4.28125 85.929688 C 4.078125 85.929688 3.878906 85.929688 3.667969 85.929688 C 3.285156 83.222656 2.902344 80.519531 2.523438 77.816406 C 2.417969 77.070312 2.308594 76.324219 2.199219 75.554688 C 1.859375 73.125 1.535156 70.691406 1.222656 68.253906 C 1.136719 67.601562 1.136719 67.601562 1.050781 66.933594 C 0.0820312 59.347656 -0.226562 51.828125 -0.226562 44.1875 C -0.230469 42.324219 -0.25 40.460938 -0.273438 38.59375 C -0.277344 37.40625 -0.28125 36.214844 -0.28125 35.023438 C -0.289062 34.46875 -0.300781 33.914062 -0.308594 33.34375 C -0.28125 29.550781 -0.28125 29.550781 1.15625 28.015625 C 2.496094 27.402344 3.800781 26.824219 5.199219 26.355469 C 5.660156 26.195312 6.121094 26.035156 6.59375 25.871094 C 8.085938 25.566406 8.96875 25.726562 10.398438 26.203125 Z M 10.398438 26.203125 "/>
<path style=" stroke:none;fill-rule:nonzero;fill:rgb(92.54902%,79.607844%,74.509805%);fill-opacity:1;" d="M 86.238281 86.539062 C 87.960938 87.722656 88.558594 88.429688 89.027344 90.460938 C 88.527344 92.746094 87.453125 93.652344 85.625 95.070312 C 84.097656 95.449219 84.097656 95.449219 82.570312 95.070312 C 80.808594 93.773438 80.808594 93.773438 79.511719 92.023438 C 79.511719 90.050781 79.796875 88.90625 80.808594 87.222656 C 82.671875 86.109375 84.125 86.277344 86.238281 86.539062 Z M 86.238281 86.539062 "/>
<path style=" stroke:none;fill-rule:nonzero;fill:rgb(16.470589%,87.450981%,69.01961%);fill-opacity:1;" d="M 16.515625 132.851562 C 18 134.179688 18.726562 135.308594 19.425781 137.160156 C 19.617188 137.652344 19.804688 138.144531 20 138.652344 C 20.300781 139.4375 20.300781 139.4375 20.605469 140.242188 C 22.257812 144.457031 23.941406 148.648438 25.804688 152.773438 C 25.992188 153.214844 26.179688 153.65625 26.375 154.109375 C 26.972656 155.480469 26.972656 155.480469 28.132812 157.230469 C 29.730469 157.882812 29.730469 157.882812 31.191406 157.839844 C 30.390625 158.753906 30.390625 158.753906 29.359375 159.667969 C 28.753906 159.667969 28.148438 159.667969 27.523438 159.667969 C 26.441406 157.472656 25.367188 155.273438 24.292969 153.074219 C 23.753906 151.96875 23.210938 150.863281 22.667969 149.757812 C 16.515625 137.117188 16.515625 137.117188 16.515625 132.851562 Z M 16.515625 132.851562 "/>
<path style=" stroke:none;fill-rule:nonzero;fill:rgb(38.82353%,25.098041%,58.823532%);fill-opacity:1;" d="M 200 30.472656 C 200.175781 40.496094 199.738281 50.351562 198.777344 60.332031 C 198.574219 60.332031 198.375 60.332031 198.164062 60.332031 C 197.964844 57.71875 197.761719 55.105469 197.554688 52.410156 C 197.957031 52.410156 198.359375 52.410156 198.777344 52.410156 C 198.675781 51.824219 198.574219 51.238281 198.472656 50.636719 C 198.007812 47.398438 198.136719 44.164062 198.1875 40.902344 C 198.21875 37.765625 198.011719 34.792969 197.554688 31.691406 C 199.386719 30.472656 199.386719 30.472656 200 30.472656 Z M 200 30.472656 "/>
<path style=" stroke:none;fill-rule:nonzero;fill:rgb(41.568628%,82.352942%,78.039217%);fill-opacity:1;" d="M 10.398438 26.203125 C 8.5625 27.421875 8.5625 27.421875 6.5 27.996094 C 3.640625 28.828125 3.640625 28.828125 1.222656 30.472656 C 0.953125 32.203125 0.878906 33.570312 0.945312 35.296875 C 0.953125 35.773438 0.957031 36.246094 0.964844 36.734375 C 0.984375 38.253906 1.027344 39.769531 1.070312 41.289062 C 1.101562 42.796875 1.128906 44.304688 1.152344 45.8125 C 1.167969 46.753906 1.1875 47.691406 1.214844 48.628906 C 1.277344 51.390625 1.074219 53.953125 0.613281 56.675781 C 0.410156 56.675781 0.207031 56.675781 0 56.675781 C -0.0625 52.804688 -0.105469 48.933594 -0.132812 45.058594 C -0.148438 43.742188 -0.164062 42.425781 -0.183594 41.105469 C -0.214844 39.214844 -0.226562 37.320312 -0.238281 35.429688 C -0.25 34.839844 -0.265625 34.25 -0.277344 33.640625 C -0.277344 33.089844 -0.277344 32.542969 -0.277344 31.976562 C -0.28125 31.492188 -0.289062 31.011719 -0.292969 30.511719 C 0 29.253906 0 29.253906 1.15625 28.207031 C 2.484375 27.398438 3.726562 26.851562 5.199219 26.355469 C 5.660156 26.195312 6.121094 26.035156 6.59375 25.871094 C 8.085938 25.566406 8.96875 25.726562 10.398438 26.203125 Z M 10.398438 26.203125 "/>
<path style=" stroke:none;fill-rule:nonzero;fill:rgb(20%,89.803922%,68.235296%);fill-opacity:1;" d="M 9.785156 110.914062 C 11.007812 111.523438 11.007812 111.523438 11.621094 113.300781 C 11.824219 114.046875 12.023438 114.792969 12.230469 115.5625 C 12.433594 116.296875 12.636719 117.035156 12.84375 117.792969 C 13.046875 118.539062 13.246094 119.285156 13.457031 120.054688 C 14.394531 123.429688 15.503906 126.710938 16.691406 130.007812 C 17.125 131.632812 17.125 131.632812 16.515625 133.460938 C 15.5 131.949219 14.984375 130.949219 14.433594 129.269531 C 14.28125 128.8125 14.128906 128.355469 13.972656 127.882812 C 13.734375 127.15625 13.734375 127.15625 13.492188 126.417969 C 13.332031 125.921875 13.167969 125.429688 13.003906 124.917969 C 12.683594 123.941406 12.363281 122.964844 12.046875 121.984375 C 11.695312 120.894531 11.335938 119.804688 10.972656 118.714844 C 10.109375 116.03125 9.558594 113.769531 9.785156 110.914062 Z M 9.785156 110.914062 "/>
<path style=" stroke:none;fill-rule:nonzero;fill:rgb(38.039216%,67.843139%,89.019608%);fill-opacity:1;" d="M 133.945312 9.140625 C 137.96875 9.546875 141.679688 10.71875 145.527344 11.921875 C 146.503906 12.222656 146.503906 12.222656 147.503906 12.53125 C 149.101562 13.023438 150.699219 13.519531 152.292969 14.015625 C 149.644531 14.832031 147.558594 14.191406 144.953125 13.484375 C 144.300781 13.3125 144.300781 13.3125 143.636719 13.136719 C 142.441406 12.824219 141.25 12.507812 140.0625 12.1875 C 139.246094 11.984375 138.429688 11.78125 137.613281 11.578125 C 137.613281 11.175781 137.613281 10.773438 137.613281 10.359375 C 135.796875 10.058594 135.796875 10.058594 133.945312 9.75 C 133.945312 9.550781 133.945312 9.347656 133.945312 9.140625 Z M 133.945312 9.140625 "/>
<path style=" stroke:none;fill-rule:nonzero;fill:rgb(41.960785%,29.411766%,68.627453%);fill-opacity:1;" d="M 197.554688 62.769531 C 197.753906 62.769531 197.957031 62.769531 198.164062 62.769531 C 197.789062 69.738281 196.761719 76.59375 195.71875 83.492188 C 195.515625 83.492188 195.316406 83.492188 195.105469 83.492188 C 194.988281 82.628906 194.875 81.765625 194.761719 80.898438 C 194.699219 80.417969 194.636719 79.9375 194.570312 79.445312 C 194.496094 77.992188 194.707031 76.953125 195.105469 75.566406 C 195.105469 75.164062 195.105469 74.761719 195.105469 74.347656 C 195.511719 74.347656 195.914062 74.347656 196.332031 74.347656 C 196.316406 73.769531 196.300781 73.1875 196.289062 72.589844 C 196.277344 71.824219 196.265625 71.0625 196.253906 70.273438 C 196.238281 69.515625 196.226562 68.761719 196.210938 67.980469 C 196.324219 65.929688 196.660156 64.597656 197.554688 62.769531 Z M 197.554688 62.769531 "/>
<path style=" stroke:none;fill-rule:nonzero;fill:rgb(86.274511%,27.058825%,90.588236%);fill-opacity:1;" d="M 29.359375 159.058594 C 29.761719 159.257812 30.164062 159.460938 30.582031 159.667969 C 30.761719 160.210938 30.945312 160.753906 31.128906 161.316406 C 31.839844 163.429688 32.777344 164.980469 34.019531 166.828125 C 36.085938 169.902344 36.085938 169.902344 36.085938 171.246094 C 33.949219 170.539062 33.804688 170.183594 32.734375 168.3125 C 32.464844 167.847656 32.195312 167.378906 31.914062 166.902344 C 31.640625 166.410156 31.363281 165.921875 31.078125 165.417969 C 30.792969 164.925781 30.511719 164.4375 30.21875 163.929688 C 29.519531 162.714844 28.824219 161.496094 28.132812 160.277344 C 28.539062 159.875 28.941406 159.472656 29.359375 159.058594 Z M 29.359375 159.058594 "/>
<path style=" stroke:none;fill-rule:nonzero;fill:rgb(39.215687%,5.882353%,71.372551%);fill-opacity:1;" d="M 176.148438 146.261719 C 176.550781 146.460938 176.953125 146.664062 177.371094 146.871094 C 175.902344 151.855469 173.644531 156.296875 171.253906 160.886719 C 170.851562 160.28125 170.445312 159.679688 170.03125 159.058594 C 170.433594 159.058594 170.839844 159.058594 171.253906 159.058594 C 171.539062 157.890625 171.539062 157.890625 171.828125 156.695312 C 172.15625 155.339844 172.460938 154.214844 173.089844 152.964844 C 173.492188 152.964844 173.894531 152.964844 174.3125 152.964844 C 174.386719 152.421875 174.464844 151.882812 174.542969 151.328125 C 174.890625 149.488281 175.390625 147.964844 176.148438 146.261719 Z M 176.148438 146.261719 "/>
<path style=" stroke:none;fill-rule:nonzero;fill:rgb(84.313726%,25.882354%,90.980393%);fill-opacity:1;" d="M 44.035156 181.605469 C 46.765625 184.28125 49.3125 187.089844 51.859375 189.9375 C 53.074219 191.375 53.074219 191.375 54.433594 191.964844 C 54.433594 192.367188 54.433594 192.769531 54.433594 193.1875 C 52.109375 192.230469 50.640625 190.769531 48.890625 188.996094 C 48.367188 188.46875 47.84375 187.941406 47.300781 187.402344 C 44.035156 183.914062 44.035156 183.914062 44.035156 181.605469 Z M 44.035156 181.605469 "/>
<path style=" stroke:none;fill-rule:nonzero;fill:rgb(25.882354%,66.274512%,93.725491%);fill-opacity:1;" d="M 187.15625 24.984375 C 191.125 25.613281 195.417969 26.308594 198.777344 28.644531 C 199.234375 29.941406 199.234375 29.941406 199.386719 31.082031 C 199.1875 30.679688 198.984375 30.277344 198.777344 29.863281 C 197.527344 29.390625 197.527344 29.390625 196.023438 29.023438 C 192.917969 28.15625 190.0625 26.972656 187.15625 25.59375 C 187.15625 25.394531 187.15625 25.191406 187.15625 24.984375 Z M 187.15625 24.984375 "/>
<path style=" stroke:none;fill-rule:nonzero;fill:rgb(27.843139%,82.745099%,67.843139%);fill-opacity:1;" d="M 12.84375 121.882812 C 14.460938 123.804688 15.265625 125.644531 16.054688 128.015625 C 16.273438 128.652344 16.492188 129.285156 16.714844 129.941406 C 17.125 131.632812 17.125 131.632812 16.515625 133.460938 C 15.367188 131.75 14.703125 130.277344 13.992188 128.359375 C 13.773438 127.789062 13.558594 127.21875 13.335938 126.628906 C 12.851562 124.953125 12.75 123.617188 12.84375 121.882812 Z M 12.84375 121.882812 "/>
<path style=" stroke:none;fill-rule:nonzero;fill:rgb(34.117648%,83.137256%,75.294119%);fill-opacity:1;" d="M 10.398438 26.203125 C 8.5625 27.421875 8.5625 27.421875 6.5 27.996094 C 4.449219 28.59375 3.011719 29.351562 1.222656 30.472656 C 0.820312 30.472656 0.414062 30.472656 0 30.472656 C 0.632812 28.714844 1.042969 28.128906 2.726562 27.242188 C 3.316406 27.035156 3.90625 26.832031 4.511719 26.625 C 5.097656 26.414062 5.679688 26.203125 6.285156 25.984375 C 7.96875 25.589844 8.796875 25.621094 10.398438 26.203125 Z M 10.398438 26.203125 "/>
<path style=" stroke:none;fill-rule:nonzero;fill:rgb(23.137255%,90.588236%,72.549021%);fill-opacity:1;" d="M 4.28125 81.660156 C 4.484375 81.660156 4.683594 81.660156 4.894531 81.660156 C 5.21875 83.335938 5.535156 85.011719 5.847656 86.691406 C 5.941406 87.164062 6.035156 87.636719 6.128906 88.125 C 6.214844 88.585938 6.300781 89.042969 6.386719 89.519531 C 6.464844 89.9375 6.546875 90.359375 6.628906 90.792969 C 6.738281 92.152344 6.515625 93.164062 6.117188 94.460938 C 5.914062 92.851562 5.710938 91.242188 5.503906 89.585938 C 5.101562 89.585938 4.695312 89.585938 4.28125 89.585938 C 4.28125 86.96875 4.28125 84.355469 4.28125 81.660156 Z M 4.28125 81.660156 "/>
<path style=" stroke:none;fill-rule:nonzero;fill:rgb(30.588236%,83.92157%,69.803923%);fill-opacity:1;" d="M 4.894531 89.585938 C 5.09375 89.585938 5.296875 89.585938 5.503906 89.585938 C 6.996094 93.746094 7.59375 97.355469 7.339844 101.773438 C 5.304688 98.078125 4.671875 93.765625 4.894531 89.585938 Z M 4.894531 89.585938 "/>
<path style=" stroke:none;fill-rule:nonzero;fill:rgb(36.470589%,81.176472%,70.19608%);fill-opacity:1;" d="M 2.445312 75.566406 C 2.851562 75.566406 3.253906 75.566406 3.667969 75.566406 C 4.394531 77.738281 4.339844 79.492188 4.320312 81.777344 C 4.3125 82.550781 4.308594 83.328125 4.304688 84.125 C 4.296875 84.71875 4.289062 85.316406 4.28125 85.929688 C 4.078125 85.929688 3.878906 85.929688 3.667969 85.929688 C 3.265625 82.507812 2.863281 79.089844 2.445312 75.566406 Z M 2.445312 75.566406 "/>
<path style=" stroke:none;fill-rule:nonzero;fill:rgb(85.882354%,26.274511%,90.588236%);fill-opacity:1;" d="M 37.921875 173.683594 C 38.527344 173.984375 38.527344 173.984375 39.144531 174.292969 C 39.144531 174.898438 39.144531 175.5 39.144531 176.121094 C 39.75 176.324219 40.355469 176.523438 40.980469 176.730469 C 41.179688 177.335938 41.382812 177.9375 41.589844 178.558594 C 42.507812 179.574219 42.507812 179.574219 43.425781 180.386719 C 42.820312 180.386719 42.214844 180.386719 41.589844 180.386719 C 40.609375 179.386719 40.609375 179.386719 39.640625 178.0625 C 39.316406 177.632812 38.992188 177.203125 38.660156 176.757812 C 37.921875 175.511719 37.921875 175.511719 37.921875 173.683594 Z M 37.921875 173.683594 "/>
<path style=" stroke:none;fill-rule:nonzero;fill:rgb(38.82353%,71.372551%,89.411765%);fill-opacity:1;" d="M 107.644531 1.21875 C 108.628906 1.390625 109.609375 1.570312 110.589844 1.753906 C 111.410156 1.902344 111.410156 1.902344 112.246094 2.050781 C 113.761719 2.4375 113.761719 2.4375 115.597656 3.65625 C 112.644531 3.773438 110.398438 3.507812 107.644531 2.4375 C 107.644531 2.035156 107.644531 1.632812 107.644531 1.21875 Z M 107.644531 1.21875 "/>
<path style=" stroke:none;fill-rule:nonzero;fill:rgb(36.470589%,4.705882%,69.01961%);fill-opacity:1;" d="M 179.203125 138.949219 C 179.609375 139.148438 180.011719 139.347656 180.429688 139.558594 C 180.019531 142.230469 179.089844 144.421875 177.980469 146.871094 C 177.578125 146.265625 177.175781 145.664062 176.757812 145.042969 C 177.046875 144.488281 177.339844 143.933594 177.636719 143.367188 C 178.375 141.832031 178.886719 140.59375 179.203125 138.949219 Z M 179.203125 138.949219 "/>
<path style=" stroke:none;fill-rule:nonzero;fill:rgb(45.490196%,38.431373%,67.058825%);fill-opacity:1;" d="M 198.777344 50.582031 C 198.980469 50.582031 199.179688 50.582031 199.386719 50.582031 C 199.1875 53.800781 198.984375 57.015625 198.777344 60.332031 C 198.574219 60.332031 198.375 60.332031 198.164062 60.332031 C 197.964844 57.71875 197.761719 55.105469 197.554688 52.410156 C 197.957031 52.410156 198.359375 52.410156 198.777344 52.410156 C 198.777344 51.808594 198.777344 51.203125 198.777344 50.582031 Z M 198.777344 50.582031 "/>
<path style=" stroke:none;fill-rule:nonzero;fill:rgb(12.941177%,89.411765%,72.156864%);fill-opacity:1;" d="M 21.40625 146.871094 C 22.011719 146.871094 22.617188 146.871094 23.242188 146.871094 C 25.078125 150.375 25.078125 150.375 25.078125 151.746094 C 24.472656 151.542969 23.867188 151.34375 23.242188 151.136719 C 22.210938 148.964844 22.210938 148.964844 21.40625 146.871094 Z M 21.40625 146.871094 "/>
<path style=" stroke:none;fill-rule:nonzero;fill:rgb(36.862746%,5.882353%,73.333335%);fill-opacity:1;" d="M 188.378906 112.742188 C 189.359375 115.179688 188.558594 117.035156 187.769531 119.445312 C 186.894531 118.011719 186.492188 117.324219 186.773438 115.636719 C 186.898438 115.285156 187.027344 114.933594 187.15625 114.570312 C 187.558594 114.570312 187.964844 114.570312 188.378906 114.570312 C 188.378906 113.96875 188.378906 113.363281 188.378906 112.742188 Z M 188.378906 112.742188 "/>
<path style=" stroke:none;fill-rule:nonzero;fill:rgb(89.019608%,32.941177%,91.764706%);fill-opacity:1;" d="M 29.359375 159.058594 C 29.761719 159.257812 30.164062 159.460938 30.582031 159.667969 C 31.027344 161.078125 31.4375 162.5 31.804688 163.933594 C 29.96875 163.324219 29.96875 163.324219 28.9375 161.457031 C 28.671875 160.867188 28.40625 160.277344 28.132812 159.667969 C 28.539062 159.464844 28.941406 159.265625 29.359375 159.058594 Z M 29.359375 159.058594 "/>
</g>
</svg>
